<svg xmlns="http://www.w3.org/2000/svg" viewBox="0 0 350 452" width="100%" style="max-width:400px;background:#fafafa">
  <text x="175.0" y="18" text-anchor="middle" font-size="12" font-weight="700" fill="#5b21b6">03 — +20,00 KOTU KALIP PLANI</text>
  <text x="175.0" y="32" text-anchor="middle" font-size="8" fill="#64748b">675×680 cm dış · Kesit A-A / B-B · 1/50</text>
  <line x1="107.5" y1="45" x2="107.5" y2="332" stroke="#cbd5e1"/><line x1="242.5" y1="45" x2="242.5" y2="332" stroke="#cbd5e1"/><line x1="25" y1="141.6" x2="310" y2="141.6" stroke="#cbd5e1"/><line x1="25" y1="291.2" x2="310" y2="291.2" stroke="#cbd5e1"/><text x="107.5" y="40" text-anchor="middle" font-size="9" fill="#64748b">5</text><text x="242.5" y="40" text-anchor="middle" font-size="9" fill="#64748b">6</text><text x="18" y="141.6" font-size="9" fill="#64748b">A</text><text x="18" y="291.2" font-size="9" fill="#64748b">C</text>
  <rect x="52" y="72" width="246" height="248" fill="#16a34a" opacity="0.2" stroke="#16a34a" stroke-width="1.5"/>
  <rect x="40" y="60" width="270" height="12" fill="#d97706" opacity="0.5"/><rect x="40" y="320" width="270" height="12" fill="#d97706" opacity="0.5"/><rect x="40" y="60" width="12" height="272" fill="#d97706" opacity="0.5"/><rect x="298" y="60" width="12" height="272" fill="#d97706" opacity="0.5"/><text x="70" y="68" font-size="6" fill="#fff">K0601</text><text x="260" y="68" font-size="6" fill="#fff">K0602</text><text x="175.0" y="196.0" text-anchor="middle" font-size="10" fill="#16a34a" font-weight="600">D601 + D602</text><text x="175.0" y="210.0" text-anchor="middle" font-size="8" fill="#64748b">h=20 cm · 650×650 iç</text>
  <line x1="40" y1="342" x2="310" y2="342" stroke="#334155" stroke-width="0.8"/>
  <text x="175.0" y="354" text-anchor="middle" font-size="8" fill="#334155">675 cm</text>
  <line x1="320" y1="60" x2="320" y2="332" stroke="#334155" stroke-width="0.8"/>
  <text x="332" y="196.0" font-size="8" fill="#334155" transform="rotate(90 332 196.0)">680 cm</text>
  <g transform="translate(40, 370)">
    <text x="0" y="0" font-size="8" fill="#475569"><tspan font-weight="600">Kot farkları:</tspan> +20,00→+20,20 (0,20) · +20,20→+21,00 (0,80) · +21,00→+21,60 (0,60)</text>
    <text x="0" y="14" font-size="8" fill="#475569">K0601–K0604 (25/60) · PRP.1–4 donatı · GM1 taban (Kesit B-B)</text>
    <text x="0" y="28" font-size="8" fill="#b45309">Ana metraj çatı +16,00 — bu plan üst yapı detayı (+4,00 m fark)</text>
  </g>
</svg>